<mxfile host="app.diagrams.net" agent="Mozilla/5.0 (Macintosh; Intel Mac OS X 10_15_7) AppleWebKit/537.36 (KHTML, like Gecko) Chrome/126.0.0.0 Safari/537.36" version="24.7.6">
  <diagram name="Page-1" id="e7e014a7-5840-1c2e-5031-d8a46d1fe8dd">
    <mxGraphModel dx="954" dy="606" grid="1" gridSize="10" guides="1" tooltips="1" connect="1" arrows="1" fold="1" page="1" pageScale="1" pageWidth="1169" pageHeight="826" background="none" math="0" shadow="0">
      <root>
        <mxCell id="0" />
        <mxCell id="1" parent="0" />
        <mxCell id="qEsYkAyANXAOBNcOcd8i-41" value="Actor" style="shape=umlActor;verticalLabelPosition=bottom;verticalAlign=top;html=1;outlineConnect=0;" vertex="1" parent="1">
          <mxGeometry x="280" y="260" width="30" height="60" as="geometry" />
        </mxCell>
        <mxCell id="qEsYkAyANXAOBNcOcd8i-44" value="" style="ellipse;whiteSpace=wrap;html=1;" vertex="1" parent="1">
          <mxGeometry x="410" y="171" width="180" height="50" as="geometry" />
        </mxCell>
        <mxCell id="qEsYkAyANXAOBNcOcd8i-45" value="平滑处理坐标点" style="ellipse;whiteSpace=wrap;html=1;" vertex="1" parent="1">
          <mxGeometry x="410" y="231" width="180" height="50" as="geometry" />
        </mxCell>
        <mxCell id="qEsYkAyANXAOBNcOcd8i-46" value="计算轮廓曲线和模板曲线的曲率" style="ellipse;whiteSpace=wrap;html=1;" vertex="1" parent="1">
          <mxGeometry x="410" y="291" width="180" height="50" as="geometry" />
        </mxCell>
        <mxCell id="qEsYkAyANXAOBNcOcd8i-47" value="计算轮廓曲线和模板曲线的曲率" style="ellipse;whiteSpace=wrap;html=1;" vertex="1" parent="1">
          <mxGeometry x="410" y="350" width="180" height="50" as="geometry" />
        </mxCell>
        <mxCell id="qEsYkAyANXAOBNcOcd8i-48" value="动态规划算法拟合轮廓" style="ellipse;whiteSpace=wrap;html=1;" vertex="1" parent="1">
          <mxGeometry x="410" y="413" width="180" height="50" as="geometry" />
        </mxCell>
        <mxCell id="qEsYkAyANXAOBNcOcd8i-49" value="构造拟合曲线" style="ellipse;whiteSpace=wrap;html=1;" vertex="1" parent="1">
          <mxGeometry x="410" y="470" width="180" height="50" as="geometry" />
        </mxCell>
        <mxCell id="qEsYkAyANXAOBNcOcd8i-50" value="提取轮廓坐标点" style="rounded=0;whiteSpace=wrap;html=1;" vertex="1" parent="1">
          <mxGeometry x="120" y="390" width="50" height="130" as="geometry" />
        </mxCell>
      </root>
    </mxGraphModel>
  </diagram>
</mxfile>
